<svg height="2078" width="720" xmlns="http://www.w3.org/2000/svg">
<rect height="2078" fill="#555" width="720"></rect>
<text fill="#7f7" font-family="Courier New" font-size="12" xml:space="preserve">
<tspan x="10" y="26">└─┬ protractor@5.1.1 </tspan>
<tspan x="10" y="42">  ├── @types/node@6.0.68 </tspan>
<tspan x="10" y="58">  ├── @types/q@0.0.32 </tspan>
<tspan x="10" y="74">  ├── @types/selenium-webdriver@2.53.42 </tspan>
<tspan x="10" y="90">  ├─┬ blocking-proxy@0.0.5 </tspan>
<tspan x="10" y="106">  │ └── minimist@1.2.0 </tspan>
<tspan x="10" y="122">  ├─┬ chalk@1.1.3 </tspan>
<tspan x="10" y="138">  │ ├── ansi-styles@2.2.1 </tspan>
<tspan x="10" y="154">  │ ├── escape-string-regexp@1.0.5 </tspan>
<tspan x="10" y="170">  │ ├─┬ has-ansi@2.0.0 </tspan>
<tspan x="10" y="186">  │ │ └── ansi-regex@2.1.1 </tspan>
<tspan x="10" y="202">  │ ├── strip-ansi@3.0.1 </tspan>
<tspan x="10" y="218">  │ └── supports-color@2.0.0 </tspan>
<tspan x="10" y="234">  ├─┬ glob@7.1.1 </tspan>
<tspan x="10" y="250">  │ ├── fs.realpath@1.0.0 </tspan>
<tspan x="10" y="266">  │ ├─┬ inflight@1.0.6 </tspan>
<tspan x="10" y="282">  │ │ └── wrappy@1.0.2 </tspan>
<tspan x="10" y="298">  │ ├── inherits@2.0.3 </tspan>
<tspan x="10" y="314">  │ ├─┬ minimatch@3.0.3 </tspan>
<tspan x="10" y="330">  │ │ └─┬ brace-expansion@1.1.6 </tspan>
<tspan x="10" y="346">  │ │   ├── balanced-match@0.4.2 </tspan>
<tspan x="10" y="362">  │ │   └── concat-map@0.0.1 </tspan>
<tspan x="10" y="378">  │ ├── once@1.4.0 </tspan>
<tspan x="10" y="394">  │ └── path-is-absolute@1.0.1 </tspan>
<tspan x="10" y="410">  ├─┬ jasmine@2.5.3 </tspan>
<tspan x="10" y="426">  │ ├── exit@0.1.2 </tspan>
<tspan x="10" y="442">  │ └── jasmine-core@2.5.2 </tspan>
<tspan x="10" y="458">  ├── jasminewd2@2.0.0 </tspan>
<tspan x="10" y="474">  ├─┬ optimist@0.6.1 </tspan>
<tspan x="10" y="490">  │ ├── minimist@0.0.10 </tspan>
<tspan x="10" y="506">  │ └── wordwrap@0.0.3 </tspan>
<tspan x="10" y="522">  ├── q@1.4.1 </tspan>
<tspan x="10" y="538">  ├─┬ saucelabs@1.3.0 </tspan>
<tspan x="10" y="554">  │ └─┬ https-proxy-agent@1.0.0 </tspan>
<tspan x="10" y="570">  │   ├─┬ agent-base@2.0.1 </tspan>
<tspan x="10" y="586">  │   │ └── semver@5.0.3 </tspan>
<tspan x="10" y="602">  │   └─┬ debug@2.6.3 </tspan>
<tspan x="10" y="618">  │     └── ms@0.7.2 </tspan>
<tspan x="10" y="634">  ├─┬ selenium-webdriver@3.0.1 </tspan>
<tspan x="10" y="650">  │ └─┬ tmp@0.0.30 </tspan>
<tspan x="10" y="666">  │   └── os-tmpdir@1.0.2 </tspan>
<tspan x="10" y="682">  ├─┬ source-map-support@0.4.14 </tspan>
<tspan x="10" y="698">  │ └── source-map@0.5.6 </tspan>
<tspan x="10" y="714">  ├─┬ webdriver-js-extender@1.0.0 </tspan>
<tspan x="10" y="730">  │ └─┬ selenium-webdriver@2.53.3 </tspan>
<tspan x="10" y="746">  │   ├── adm-zip@0.4.4 </tspan>
<tspan x="10" y="762">  │   ├── tmp@0.0.24 </tspan>
<tspan x="10" y="778">  │   ├─┬ ws@1.1.4 </tspan>
<tspan x="10" y="794">  │   │ ├── options@0.0.6 </tspan>
<tspan x="10" y="810">  │   │ └── ultron@1.0.2 </tspan>
<tspan x="10" y="826">  │   └─┬ xml2js@0.4.4 </tspan>
<tspan x="10" y="842">  │     └── sax@0.6.1 </tspan>
<tspan x="10" y="858">  └─┬ webdriver-manager@12.0.4 </tspan>
<tspan x="10" y="874">    ├── adm-zip@0.4.7 </tspan>
<tspan x="10" y="890">    ├─┬ del@2.2.2 </tspan>
<tspan x="10" y="906">    │ ├─┬ globby@5.0.0 </tspan>
<tspan x="10" y="922">    │ │ ├─┬ array-union@1.0.2 </tspan>
<tspan x="10" y="938">    │ │ │ └── array-uniq@1.0.3 </tspan>
<tspan x="10" y="954">    │ │ └── arrify@1.0.1 </tspan>
<tspan x="10" y="970">    │ ├── is-path-cwd@1.0.0 </tspan>
<tspan x="10" y="986">    │ ├─┬ is-path-in-cwd@1.0.0 </tspan>
<tspan x="10" y="1002">    │ │ └─┬ is-path-inside@1.0.0 </tspan>
<tspan x="10" y="1018">    │ │   └── path-is-inside@1.0.2 </tspan>
<tspan x="10" y="1034">    │ ├── object-assign@4.1.1 </tspan>
<tspan x="10" y="1050">    │ ├── pify@2.3.0 </tspan>
<tspan x="10" y="1066">    │ └─┬ pinkie-promise@2.0.1 </tspan>
<tspan x="10" y="1082">    │   └── pinkie@2.0.4 </tspan>
<tspan x="10" y="1098">    ├── ini@1.3.4 </tspan>
<tspan x="10" y="1114">    ├─┬ request@2.81.0 </tspan>
<tspan x="10" y="1130">    │ ├── aws-sign2@0.6.0 </tspan>
<tspan x="10" y="1146">    │ ├── aws4@1.6.0 </tspan>
<tspan x="10" y="1162">    │ ├── caseless@0.12.0 </tspan>
<tspan x="10" y="1178">    │ ├─┬ combined-stream@1.0.5 </tspan>
<tspan x="10" y="1194">    │ │ └── delayed-stream@1.0.0 </tspan>
<tspan x="10" y="1210">    │ ├── extend@3.0.0 </tspan>
<tspan x="10" y="1226">    │ ├── forever-agent@0.6.1 </tspan>
<tspan x="10" y="1242">    │ ├─┬ form-data@2.1.2 </tspan>
<tspan x="10" y="1258">    │ │ └── asynckit@0.4.0 </tspan>
<tspan x="10" y="1274">    │ ├─┬ har-validator@4.2.1 </tspan>
<tspan x="10" y="1290">    │ │ ├─┬ ajv@4.11.5 </tspan>
<tspan x="10" y="1306">    │ │ │ ├── co@4.6.0 </tspan>
<tspan x="10" y="1322">    │ │ │ └─┬ json-stable-stringify@1.0.1 </tspan>
<tspan x="10" y="1338">    │ │ │   └── jsonify@0.0.0 </tspan>
<tspan x="10" y="1354">    │ │ └── har-schema@1.0.5 </tspan>
<tspan x="10" y="1370">    │ ├─┬ hawk@3.1.3 </tspan>
<tspan x="10" y="1386">    │ │ ├── boom@2.10.1 </tspan>
<tspan x="10" y="1402">    │ │ ├── cryptiles@2.0.5 </tspan>
<tspan x="10" y="1418">    │ │ ├── hoek@2.16.3 </tspan>
<tspan x="10" y="1434">    │ │ └── sntp@1.0.9 </tspan>
<tspan x="10" y="1450">    │ ├─┬ http-signature@1.1.1 </tspan>
<tspan x="10" y="1466">    │ │ ├── assert-plus@0.2.0 </tspan>
<tspan x="10" y="1482">    │ │ ├─┬ jsprim@1.4.0 </tspan>
<tspan x="10" y="1498">    │ │ │ ├── assert-plus@1.0.0 </tspan>
<tspan x="10" y="1514">    │ │ │ ├── extsprintf@1.0.2 </tspan>
<tspan x="10" y="1530">    │ │ │ ├── json-schema@0.2.3 </tspan>
<tspan x="10" y="1546">    │ │ │ └── verror@1.3.6 </tspan>
<tspan x="10" y="1562">    │ │ └─┬ sshpk@1.11.0 </tspan>
<tspan x="10" y="1578">    │ │   ├── asn1@0.2.3 </tspan>
<tspan x="10" y="1594">    │ │   ├── assert-plus@1.0.0 </tspan>
<tspan x="10" y="1610">    │ │   ├── bcrypt-pbkdf@1.0.1 </tspan>
<tspan x="10" y="1626">    │ │   ├─┬ dashdash@1.14.1 </tspan>
<tspan x="10" y="1642">    │ │   │ └── assert-plus@1.0.0 </tspan>
<tspan x="10" y="1658">    │ │   ├── ecc-jsbn@0.1.1 </tspan>
<tspan x="10" y="1674">    │ │   ├─┬ getpass@0.1.6 </tspan>
<tspan x="10" y="1690">    │ │   │ └── assert-plus@1.0.0 </tspan>
<tspan x="10" y="1706">    │ │   ├── jodid25519@1.0.2 </tspan>
<tspan x="10" y="1722">    │ │   ├── jsbn@0.1.1 </tspan>
<tspan x="10" y="1738">    │ │   └── tweetnacl@0.14.5 </tspan>
<tspan x="10" y="1754">    │ ├── is-typedarray@1.0.0 </tspan>
<tspan x="10" y="1770">    │ ├── isstream@0.1.2 </tspan>
<tspan x="10" y="1786">    │ ├── json-stringify-safe@5.0.1 </tspan>
<tspan x="10" y="1802">    │ ├─┬ mime-types@2.1.15 </tspan>
<tspan x="10" y="1818">    │ │ └── mime-db@1.27.0 </tspan>
<tspan x="10" y="1834">    │ ├── oauth-sign@0.8.2 </tspan>
<tspan x="10" y="1850">    │ ├── performance-now@0.2.0 </tspan>
<tspan x="10" y="1866">    │ ├── qs@6.4.0 </tspan>
<tspan x="10" y="1882">    │ ├── safe-buffer@5.0.1 </tspan>
<tspan x="10" y="1898">    │ ├── stringstream@0.0.5 </tspan>
<tspan x="10" y="1914">    │ ├─┬ tough-cookie@2.3.2 </tspan>
<tspan x="10" y="1930">    │ │ └── punycode@1.4.1 </tspan>
<tspan x="10" y="1946">    │ ├── tunnel-agent@0.6.0 </tspan>
<tspan x="10" y="1962">    │ └── uuid@3.0.1 </tspan>
<tspan x="10" y="1978">    ├── rimraf@2.6.1 </tspan>
<tspan x="10" y="1994">    ├── semver@5.3.0 </tspan>
<tspan x="10" y="2010">    └─┬ xml2js@0.4.17 </tspan>
<tspan x="10" y="2026">      ├── sax@1.2.2 </tspan>
<tspan x="10" y="2042">      └─┬ xmlbuilder@4.2.1 </tspan>
<tspan x="10" y="2058">        └── lodash@4.17.4</tspan>
</text>
</svg>
